<mxfile host="app.diagrams.net" modified="2023-09-21T08:57:36.967Z" agent="Mozilla/5.0 (Windows NT 10.0; Win64; x64) AppleWebKit/537.36 (KHTML, like Gecko) Chrome/116.0.0.0 Safari/537.36" etag="v-Sst4yol0rCwS3U7Ozd" version="21.8.0" type="github">
  <diagram name="Страница 1" id="_s5fvNWSU9YGFF59Uiwb">
    <mxGraphModel dx="1050" dy="574" grid="1" gridSize="10" guides="1" tooltips="1" connect="1" arrows="1" fold="1" page="1" pageScale="1" pageWidth="827" pageHeight="1169" math="0" shadow="0">
      <root>
        <mxCell id="0" />
        <mxCell id="1" parent="0" />
        <mxCell id="giHVpxbRRX-lV9gptPgg-1" value="Поддержка оперативной деятельности транспортной компании" style="rounded=1;whiteSpace=wrap;html=1;" parent="1" vertex="1">
          <mxGeometry x="330" y="280" width="150" height="90" as="geometry" />
        </mxCell>
        <mxCell id="giHVpxbRRX-lV9gptPgg-2" value="&lt;div&gt;Вести список автотранспорта&lt;/div&gt;&lt;div&gt;&lt;br&gt;&lt;/div&gt;" style="rounded=1;whiteSpace=wrap;html=1;" parent="1" vertex="1">
          <mxGeometry x="160" y="450" width="120" height="60" as="geometry" />
        </mxCell>
        <mxCell id="giHVpxbRRX-lV9gptPgg-3" value="&lt;div&gt;&lt;div&gt;Учитывать поездки&lt;/div&gt;&lt;/div&gt;" style="rounded=1;whiteSpace=wrap;html=1;" parent="1" vertex="1">
          <mxGeometry x="293" y="450" width="120" height="60" as="geometry" />
        </mxCell>
        <mxCell id="giHVpxbRRX-lV9gptPgg-4" value="&lt;div&gt;Учитывать стоянки&lt;/div&gt;" style="rounded=1;whiteSpace=wrap;html=1;" parent="1" vertex="1">
          <mxGeometry x="430" y="450" width="120" height="60" as="geometry" />
        </mxCell>
        <mxCell id="giHVpxbRRX-lV9gptPgg-5" value="&lt;div&gt;Учитывать ремонтные работы&lt;/div&gt;&lt;div&gt;&lt;br&gt;&lt;/div&gt;" style="rounded=1;whiteSpace=wrap;html=1;" parent="1" vertex="1">
          <mxGeometry x="570" y="450" width="120" height="60" as="geometry" />
        </mxCell>
        <mxCell id="giHVpxbRRX-lV9gptPgg-6" value="" style="endArrow=none;html=1;rounded=0;exitX=0.37;exitY=1.005;exitDx=0;exitDy=0;exitPerimeter=0;" parent="1" source="giHVpxbRRX-lV9gptPgg-1" target="giHVpxbRRX-lV9gptPgg-3" edge="1">
          <mxGeometry width="50" height="50" relative="1" as="geometry">
            <mxPoint x="440" y="520" as="sourcePoint" />
            <mxPoint x="490" y="470" as="targetPoint" />
            <Array as="points">
              <mxPoint x="405" y="370" />
              <mxPoint x="405" y="410" />
              <mxPoint x="353" y="410" />
            </Array>
          </mxGeometry>
        </mxCell>
        <mxCell id="giHVpxbRRX-lV9gptPgg-7" value="" style="endArrow=none;html=1;rounded=0;entryX=0.682;entryY=1;entryDx=0;entryDy=0;entryPerimeter=0;" parent="1" source="giHVpxbRRX-lV9gptPgg-4" target="giHVpxbRRX-lV9gptPgg-1" edge="1">
          <mxGeometry width="50" height="50" relative="1" as="geometry">
            <mxPoint x="440" y="520" as="sourcePoint" />
            <mxPoint x="490" y="470" as="targetPoint" />
            <Array as="points">
              <mxPoint x="490" y="410" />
              <mxPoint x="405" y="410" />
              <mxPoint x="405" y="370" />
            </Array>
          </mxGeometry>
        </mxCell>
        <mxCell id="giHVpxbRRX-lV9gptPgg-8" value="" style="endArrow=none;html=1;rounded=0;" parent="1" source="giHVpxbRRX-lV9gptPgg-1" target="giHVpxbRRX-lV9gptPgg-5" edge="1">
          <mxGeometry width="50" height="50" relative="1" as="geometry">
            <mxPoint x="440" y="520" as="sourcePoint" />
            <mxPoint x="490" y="470" as="targetPoint" />
            <Array as="points">
              <mxPoint x="405" y="410" />
              <mxPoint x="630" y="410" />
            </Array>
          </mxGeometry>
        </mxCell>
        <mxCell id="giHVpxbRRX-lV9gptPgg-9" value="" style="endArrow=none;html=1;rounded=0;" parent="1" source="giHVpxbRRX-lV9gptPgg-2" target="giHVpxbRRX-lV9gptPgg-1" edge="1">
          <mxGeometry width="50" height="50" relative="1" as="geometry">
            <mxPoint x="440" y="520" as="sourcePoint" />
            <mxPoint x="490" y="470" as="targetPoint" />
            <Array as="points">
              <mxPoint x="220" y="410" />
              <mxPoint x="405" y="410" />
            </Array>
          </mxGeometry>
        </mxCell>
        <mxCell id="giHVpxbRRX-lV9gptPgg-11" value="&lt;div&gt;Осмотреть автотранспорт&lt;/div&gt;" style="rounded=1;whiteSpace=wrap;html=1;" parent="1" vertex="1">
          <mxGeometry x="85" y="584" width="120" height="60" as="geometry" />
        </mxCell>
        <mxCell id="giHVpxbRRX-lV9gptPgg-12" value="&lt;div&gt;контроль ремонта&lt;/div&gt;" style="rounded=1;whiteSpace=wrap;html=1;" parent="1" vertex="1">
          <mxGeometry x="475" y="584" width="120" height="60" as="geometry" />
        </mxCell>
        <mxCell id="giHVpxbRRX-lV9gptPgg-13" value="&lt;div&gt;Оформить заказ-наряд&lt;/div&gt;" style="rounded=1;whiteSpace=wrap;html=1;" parent="1" vertex="1">
          <mxGeometry x="215" y="584" width="120" height="60" as="geometry" />
        </mxCell>
        <mxCell id="giHVpxbRRX-lV9gptPgg-14" value="&lt;div&gt;Ремонтные работы&lt;/div&gt;" style="rounded=1;whiteSpace=wrap;html=1;" parent="1" vertex="1">
          <mxGeometry x="345" y="584" width="120" height="60" as="geometry" />
        </mxCell>
        <mxCell id="giHVpxbRRX-lV9gptPgg-15" value="&lt;div&gt;Оформление квитанции для оплаты&lt;/div&gt;" style="rounded=1;whiteSpace=wrap;html=1;" parent="1" vertex="1">
          <mxGeometry x="605" y="584" width="120" height="60" as="geometry" />
        </mxCell>
        <mxCell id="giHVpxbRRX-lV9gptPgg-16" value="" style="endArrow=none;html=1;rounded=0;" parent="1" source="giHVpxbRRX-lV9gptPgg-15" target="giHVpxbRRX-lV9gptPgg-5" edge="1">
          <mxGeometry width="50" height="50" relative="1" as="geometry">
            <mxPoint x="440" y="520" as="sourcePoint" />
            <mxPoint x="490" y="470" as="targetPoint" />
            <Array as="points">
              <mxPoint x="665" y="550" />
              <mxPoint x="630" y="550" />
            </Array>
          </mxGeometry>
        </mxCell>
        <mxCell id="giHVpxbRRX-lV9gptPgg-17" value="" style="endArrow=none;html=1;rounded=0;" parent="1" source="giHVpxbRRX-lV9gptPgg-14" target="giHVpxbRRX-lV9gptPgg-5" edge="1">
          <mxGeometry width="50" height="50" relative="1" as="geometry">
            <mxPoint x="440" y="520" as="sourcePoint" />
            <mxPoint x="490" y="470" as="targetPoint" />
            <Array as="points">
              <mxPoint x="405" y="550" />
              <mxPoint x="630" y="550" />
            </Array>
          </mxGeometry>
        </mxCell>
        <mxCell id="giHVpxbRRX-lV9gptPgg-18" value="" style="endArrow=none;html=1;rounded=0;exitX=0.5;exitY=1;exitDx=0;exitDy=0;" parent="1" source="giHVpxbRRX-lV9gptPgg-5" target="giHVpxbRRX-lV9gptPgg-12" edge="1">
          <mxGeometry width="50" height="50" relative="1" as="geometry">
            <mxPoint x="440" y="520" as="sourcePoint" />
            <mxPoint x="490" y="470" as="targetPoint" />
            <Array as="points">
              <mxPoint x="630" y="550" />
              <mxPoint x="535" y="550" />
            </Array>
          </mxGeometry>
        </mxCell>
        <mxCell id="giHVpxbRRX-lV9gptPgg-19" value="" style="endArrow=none;html=1;rounded=0;" parent="1" source="giHVpxbRRX-lV9gptPgg-13" target="giHVpxbRRX-lV9gptPgg-5" edge="1">
          <mxGeometry width="50" height="50" relative="1" as="geometry">
            <mxPoint x="440" y="520" as="sourcePoint" />
            <mxPoint x="490" y="470" as="targetPoint" />
            <Array as="points">
              <mxPoint x="275" y="550" />
              <mxPoint x="630" y="550" />
            </Array>
          </mxGeometry>
        </mxCell>
        <mxCell id="giHVpxbRRX-lV9gptPgg-20" value="" style="endArrow=none;html=1;rounded=0;" parent="1" source="giHVpxbRRX-lV9gptPgg-11" target="giHVpxbRRX-lV9gptPgg-5" edge="1">
          <mxGeometry width="50" height="50" relative="1" as="geometry">
            <mxPoint x="440" y="520" as="sourcePoint" />
            <mxPoint x="490" y="470" as="targetPoint" />
            <Array as="points">
              <mxPoint x="190" y="580" />
              <mxPoint x="190" y="550" />
              <mxPoint x="630" y="550" />
            </Array>
          </mxGeometry>
        </mxCell>
        <mxCell id="GW3SCLkUL272UpEBj-4R-1" value="A0" style="text;html=1;strokeColor=none;fillColor=none;align=center;verticalAlign=middle;whiteSpace=wrap;rounded=0;" vertex="1" parent="1">
          <mxGeometry x="320" y="350" width="50" height="20" as="geometry" />
        </mxCell>
        <mxCell id="GW3SCLkUL272UpEBj-4R-2" value="A1" style="text;html=1;align=center;verticalAlign=middle;resizable=0;points=[];autosize=1;strokeColor=none;fillColor=none;" vertex="1" parent="1">
          <mxGeometry x="150" y="490" width="40" height="30" as="geometry" />
        </mxCell>
        <mxCell id="GW3SCLkUL272UpEBj-4R-3" value="A2" style="text;html=1;align=center;verticalAlign=middle;resizable=0;points=[];autosize=1;strokeColor=none;fillColor=none;" vertex="1" parent="1">
          <mxGeometry x="290" y="490" width="40" height="30" as="geometry" />
        </mxCell>
        <mxCell id="GW3SCLkUL272UpEBj-4R-4" value="A3" style="text;html=1;align=center;verticalAlign=middle;resizable=0;points=[];autosize=1;strokeColor=none;fillColor=none;" vertex="1" parent="1">
          <mxGeometry x="425" y="490" width="40" height="30" as="geometry" />
        </mxCell>
        <mxCell id="GW3SCLkUL272UpEBj-4R-5" value="A4" style="text;html=1;align=center;verticalAlign=middle;resizable=0;points=[];autosize=1;strokeColor=none;fillColor=none;" vertex="1" parent="1">
          <mxGeometry x="565" y="490" width="40" height="30" as="geometry" />
        </mxCell>
        <mxCell id="GW3SCLkUL272UpEBj-4R-6" value="A41" style="text;html=1;align=center;verticalAlign=middle;resizable=0;points=[];autosize=1;strokeColor=none;fillColor=none;" vertex="1" parent="1">
          <mxGeometry x="80" y="620" width="40" height="30" as="geometry" />
        </mxCell>
        <mxCell id="GW3SCLkUL272UpEBj-4R-7" value="A42" style="text;html=1;align=center;verticalAlign=middle;resizable=0;points=[];autosize=1;strokeColor=none;fillColor=none;" vertex="1" parent="1">
          <mxGeometry x="215" y="620" width="40" height="30" as="geometry" />
        </mxCell>
        <mxCell id="GW3SCLkUL272UpEBj-4R-8" value="A43" style="text;html=1;align=center;verticalAlign=middle;resizable=0;points=[];autosize=1;strokeColor=none;fillColor=none;" vertex="1" parent="1">
          <mxGeometry x="345" y="620" width="40" height="30" as="geometry" />
        </mxCell>
        <mxCell id="GW3SCLkUL272UpEBj-4R-9" value="A44" style="text;html=1;align=center;verticalAlign=middle;resizable=0;points=[];autosize=1;strokeColor=none;fillColor=none;" vertex="1" parent="1">
          <mxGeometry x="470" y="620" width="40" height="30" as="geometry" />
        </mxCell>
        <mxCell id="GW3SCLkUL272UpEBj-4R-10" value="A45" style="text;html=1;align=center;verticalAlign=middle;resizable=0;points=[];autosize=1;strokeColor=none;fillColor=none;" vertex="1" parent="1">
          <mxGeometry x="605" y="620" width="40" height="30" as="geometry" />
        </mxCell>
      </root>
    </mxGraphModel>
  </diagram>
</mxfile>
